<svg width="24" height="24" viewBox="0 0 24 24" fill="none" xmlns="http://www.w3.org/2000/svg">
<path d="M2.81455 21.196H18.3698L17.6269 18.991C17.7371 19.079 24 24 24 24V2.475C23.9258 1.137 22.6691 0 21.1113 0L2.82 0.003C1.26327 0.003 0 1.142 0 2.48V18.72C0 20.131 1.26109 21.196 2.81455 21.196V21.196ZM14.3215 5.683L14.2855 5.695L14.2985 5.683H14.3215ZM5.99673 6.952C7.99636 5.618 9.84982 5.682 9.84982 5.682L9.99927 5.817C7.55236 6.352 6.44291 7.354 6.44291 7.354C6.55636 7.332 11.4971 4.719 17.484 7.42C17.484 7.42 16.3724 6.483 14.076 5.883L14.2789 5.7C14.5964 5.701 16.2764 5.755 18.0742 6.96C18.0742 6.96 20.0858 10.11 20.0858 13.98C20.0193 13.906 18.8378 15.646 15.7975 15.706C15.7975 15.706 15.2825 15.172 14.916 14.706C16.6942 14.238 17.3596 13.302 17.3596 13.302C13.8982 15.3 10.8644 14.988 7.23491 13.638C7.20109 13.638 7.18582 13.624 7.16836 13.608V13.602C7.15091 13.587 7.13564 13.572 7.10182 13.572H7.03636C6.81382 13.438 6.66545 13.372 6.66545 13.372C6.66545 13.372 7.32982 14.308 9.03709 14.776C8.58873 15.245 8.14473 15.778 8.14473 15.778C5.10545 15.712 3.99709 13.972 3.99709 13.972C3.99709 10.096 5.99673 6.952 5.99673 6.952V6.952Z" fill="#5C6BC0"/>
<path d="M14.5177 12.7709C15.2934 12.7709 15.925 12.1709 15.925 11.4309C15.925 10.6959 15.2967 10.0959 14.5177 10.0959V10.0989C13.7454 10.0989 13.1127 10.6969 13.1105 11.4369C13.1105 12.1709 13.7421 12.7709 14.5177 12.7709Z" fill="#5C6BC0"/>
<path d="M9.48002 12.7709C10.2557 12.7709 10.8873 12.1709 10.8873 11.4309C10.8873 10.6959 10.26 10.0959 9.48439 10.0959L9.48002 10.0989C8.70439 10.0989 8.07275 10.6969 8.07275 11.4369C8.07275 12.1709 8.70439 12.7709 9.48002 12.7709V12.7709Z" fill="#5C6BC0"/>
</svg>
