<svg width="24" height="21" viewBox="0 0 24 21" fill="none" xmlns="http://www.w3.org/2000/svg">
<path d="M19.7679 20.2501H2.41071C1.08096 20.2501 0 19.1692 0 17.8394V2.41085C0 2.14471 0.216 1.92871 0.482143 1.92871C0.748286 1.92871 0.964286 2.14471 0.964286 2.41085V17.8394C0.964286 18.6369 1.61325 19.2859 2.41071 19.2859H19.7679C20.033 19.2859 20.25 19.0689 20.25 18.8037V14.9466C20.25 14.6804 20.466 14.4644 20.7321 14.4644C20.9983 14.4644 21.2143 14.6804 21.2143 14.9466V18.8037C21.2143 19.6012 20.5653 20.2501 19.7679 20.2501Z" fill="#FCFCFC"/>
<path d="M20.7321 9.64286C20.466 9.64286 20.25 9.42686 20.25 9.16071V5.30357C20.25 5.03839 20.033 4.82143 19.7679 4.82143H2.41071C1.75982 4.82143 1.15425 4.56782 0.704893 4.10689C0.253607 3.66718 0 3.06161 0 2.41071C0 1.08096 1.08096 0 2.41071 0H16.875C17.6725 0 18.3214 0.648964 18.3214 1.44643V3.85714H19.7679C20.5653 3.85714 21.2143 4.50611 21.2143 5.30357V9.16071C21.2143 9.42686 20.9983 9.64286 20.7321 9.64286ZM2.41071 0.964286C1.61325 0.964286 0.964286 1.61325 0.964286 2.41071C0.964286 2.79932 1.11471 3.159 1.38664 3.42514C1.66243 3.70671 2.02211 3.85714 2.41071 3.85714H17.3571V1.44643C17.3571 1.18125 17.1402 0.964286 16.875 0.964286H2.41071Z" fill="#FCFCFC"/>
<path d="M22.6607 15.4286H17.8393C15.9782 15.4286 14.4643 13.9147 14.4643 12.0536C14.4643 11.1529 14.8153 10.3063 15.4537 9.66795C16.092 9.02959 16.9387 8.67859 17.8393 8.67859H22.6607C22.9269 8.67859 23.1429 8.89459 23.1429 9.16073V14.9464C23.1429 15.2126 22.9269 15.4286 22.6607 15.4286ZM17.8393 9.64287C17.1971 9.64287 16.5915 9.89455 16.1354 10.3497C15.6793 10.8048 15.4286 11.4114 15.4286 12.0536C15.4286 13.3833 16.5095 14.4643 17.8393 14.4643H22.1786V9.64287H17.8393Z" fill="#FCFCFC"/>
<path d="M17.8393 13.5C17.0418 13.5 16.3928 12.8511 16.3928 12.0536C16.3928 11.2561 17.0418 10.6072 17.8393 10.6072C18.6367 10.6072 19.2857 11.2561 19.2857 12.0536C19.2857 12.8511 18.6367 13.5 17.8393 13.5ZM17.8393 11.5715C17.5741 11.5715 17.3571 11.7884 17.3571 12.0536C17.3571 12.3188 17.5741 12.5357 17.8393 12.5357C18.1044 12.5357 18.3214 12.3188 18.3214 12.0536C18.3214 11.7884 18.1044 11.5715 17.8393 11.5715Z" fill="#FCFCFC"/>
<path d="M8.67858 14.2618C8.6024 14.2618 8.52718 14.2435 8.45775 14.2078L6.04704 12.9639C5.93133 12.9041 5.84454 12.8 5.80693 12.6746C5.76933 12.5502 5.78379 12.4143 5.84647 12.3005L8.25718 7.9612C8.42883 7.65649 8.92929 7.65649 9.10093 7.9612L11.5116 12.3005C11.5743 12.4143 11.5888 12.5502 11.5512 12.6746C11.5136 12.8 11.4268 12.9032 11.3111 12.9639L8.90036 14.2078C8.82997 14.2435 8.75475 14.2618 8.67858 14.2618V14.2618ZM6.93129 12.3352L8.67858 13.2378L10.4259 12.3352L8.67858 9.18874L6.93129 12.3352Z" fill="#FCFCFC"/>
<path d="M8.67862 17.3572C8.50312 17.3572 8.34208 17.2617 8.25626 17.1093L5.84555 12.7701C5.71633 12.5367 5.80023 12.2436 6.03262 12.1134C6.26405 11.988 6.55912 12.0671 6.6893 12.3005L8.67862 15.8828L10.667 12.3014C10.7972 12.0681 11.0903 11.988 11.3237 12.1143C11.556 12.2445 11.6399 12.5367 11.5107 12.771L9.10001 17.1103C9.01516 17.2617 8.85412 17.3572 8.67862 17.3572V17.3572Z" fill="#FCFCFC"/>
</svg>
