<svg width="24" height="24" viewBox="0 0 24 24" fill="none" xmlns="http://www.w3.org/2000/svg">
<g clip-path="url(#clip0)">
<path d="M11.9982 0.11853C5.35879 0.131303 -0.0131919 5.5239 -0.000465717 12.1633C0.0102881 17.7786 3.90688 22.6384 9.38546 23.8695C9.65558 23.9292 9.92297 23.7587 9.98275 23.4886C9.99059 23.4532 9.99458 23.4169 9.99458 23.3806V20.6557C9.99458 20.379 9.7703 20.1547 9.49366 20.1547H8.49186C7.2416 20.1547 6.38806 18.9696 5.6397 17.9237L5.40927 17.6051C5.7463 17.7934 6.06845 18.0071 6.37303 18.2443C6.93664 18.7692 7.66185 19.0871 8.42973 19.1459C9.1849 19.251 9.88225 18.7241 9.98735 17.9689C10.002 17.8633 10.0044 17.7564 9.99453 17.6502V17.3006C9.99458 17.0768 9.84614 16.8801 9.63088 16.8187C6.85183 16.0323 4.98546 13.9506 4.98546 11.6394C5.00617 10.3889 5.51911 9.19706 6.41304 8.32238C6.55735 8.17366 6.59515 7.95145 6.50823 7.76337C6.14377 6.938 6.19857 5.98772 6.65549 5.20974C7.35867 5.49295 7.98704 5.93452 8.49182 6.50006C8.62767 6.66127 8.84998 6.72016 9.04782 6.64732C10.9556 5.95945 13.0437 5.95945 14.9515 6.64732C15.1485 6.71875 15.3691 6.65996 15.5045 6.50006C16.0088 5.93424 16.6369 5.49234 17.3398 5.20871C17.7967 5.98669 17.8515 6.93697 17.4871 7.76234C17.4001 7.95041 17.438 8.17263 17.5823 8.32135C18.4768 9.19607 18.9902 10.3884 19.0108 11.6394C19.0108 14.0657 16.9381 16.2387 13.9687 16.9229C13.6991 16.9849 13.5308 17.2537 13.5927 17.5233C13.6025 17.5657 13.6177 17.6067 13.6381 17.6452C13.9187 18.2759 14.0435 18.9648 14.0018 19.6538V23.3806C14.0018 23.6572 14.226 23.8815 14.5027 23.8815C14.5391 23.8813 14.5753 23.8773 14.6109 23.8695C21.0888 22.4137 25.1601 15.9823 23.7043 9.50446C22.4732 4.02588 17.6135 0.129331 11.9982 0.11853Z" fill="#455A64"/>
</g>
<defs>
<clipPath id="clip0">
<rect width="24" height="24" fill="white"/>
</clipPath>
</defs>
</svg>
