<svg width="16" height="16" viewBox="0 0 16 16" fill="none" xmlns="http://www.w3.org/2000/svg">
<path d="M13.0688 5.5376C12.9 5.48135 12.7313 5.42822 12.5625 5.37822C12.5906 5.2626 12.6156 5.14697 12.6406 5.03135C13.025 3.16885 12.7719 1.67197 11.9187 1.17822C11.0969 0.706347 9.75625 1.19697 8.4 2.37822C8.26562 2.49385 8.13437 2.61572 8.00937 2.7376C7.925 2.65635 7.8375 2.5751 7.75 2.49697C6.32812 1.23447 4.90313 0.703223 4.05 1.2001C3.23125 1.6751 2.9875 3.08447 3.33125 4.84697C3.36562 5.02197 3.40313 5.19385 3.44688 5.36885C3.24688 5.4251 3.05 5.4876 2.86562 5.55322C1.19687 6.13135 0 7.04385 0 7.9876C0 8.9626 1.275 9.94072 3.00938 10.5345C3.15 10.5813 3.29063 10.6282 3.43438 10.6688C3.3875 10.8563 3.34688 11.0407 3.30938 11.2313C2.98125 12.9657 3.2375 14.3407 4.05625 14.8126C4.9 15.3001 6.31875 14.8001 7.7 13.5907C7.80937 13.4938 7.91875 13.3938 8.02812 13.2876C8.16562 13.422 8.30938 13.5501 8.45312 13.6751C9.79062 14.8251 11.1125 15.2907 11.9281 14.8188C12.7719 14.3313 13.0469 12.8532 12.6906 11.0532C12.6625 10.9157 12.6313 10.7751 12.5969 10.6313C12.6969 10.6032 12.7938 10.572 12.8906 10.5407C14.6938 9.94385 16 8.97822 16 7.9876C16 7.04072 14.7688 6.12197 13.0688 5.5376V5.5376ZM8.84062 2.88447C10.0031 1.87197 11.0875 1.4751 11.5813 1.75947C12.1094 2.0626 12.3125 3.2876 11.9812 4.89697C11.9594 5.00322 11.9375 5.10635 11.9094 5.20947C11.2156 5.05322 10.5125 4.94072 9.80625 4.87822C9.4 4.29697 8.95625 3.74072 8.475 3.21885C8.59688 3.10322 8.71562 2.99385 8.84062 2.88447V2.88447ZM5.225 9.60947C5.38437 9.88135 5.54688 10.1532 5.71875 10.4188C5.23125 10.3657 4.74688 10.2876 4.26875 10.1845C4.40625 9.73447 4.57812 9.26885 4.77812 8.79385C4.92187 9.06885 5.06875 9.34072 5.225 9.60947V9.60947ZM4.27812 5.8501C4.72812 5.7501 5.20625 5.66885 5.70312 5.60635C5.5375 5.86572 5.375 6.13135 5.22188 6.4001C5.06875 6.66572 4.91875 6.9376 4.77812 7.2126C4.58125 6.74697 4.41562 6.29072 4.27812 5.8501ZM5.13438 8.00322C5.34063 7.57197 5.56562 7.1501 5.80312 6.73447C6.04062 6.31885 6.29688 5.91572 6.56563 5.51885C7.03438 5.48447 7.5125 5.46572 8 5.46572C8.4875 5.46572 8.96875 5.48447 9.43437 5.51885C9.7 5.9126 9.95313 6.31572 10.1938 6.72822C10.4344 7.14072 10.6594 7.5626 10.8719 7.99072C10.6625 8.42197 10.4375 8.84697 10.1969 9.26572C9.95937 9.68135 9.70625 10.0845 9.44063 10.4845C8.975 10.5188 8.49062 10.5345 8 10.5345C7.50938 10.5345 7.03437 10.5188 6.575 10.4907C6.30312 10.0938 6.04688 9.6876 5.80625 9.27197C5.56563 8.85635 5.34375 8.43447 5.13438 8.00322ZM10.7781 9.60322C10.9375 9.32822 11.0875 9.0501 11.2344 8.76885C11.4344 9.22197 11.6094 9.68135 11.7625 10.1532C11.2781 10.2626 10.7875 10.347 10.2937 10.4032C10.4625 10.1407 10.6219 9.87197 10.7781 9.60322ZM11.2281 7.2126C11.0812 6.9376 10.9312 6.6626 10.775 6.39385C10.6219 6.12822 10.4625 5.86572 10.2969 5.60635C10.8 5.66885 11.2812 5.75322 11.7312 5.85635C11.5875 6.31885 11.4187 6.76885 11.2281 7.2126V7.2126ZM8.00625 3.69697C8.33438 4.05322 8.64375 4.42822 8.93125 4.81572C8.3125 4.7876 7.69063 4.7876 7.07188 4.81572C7.37813 4.4126 7.69375 4.0376 8.00625 3.69697ZM4.38125 1.78135C4.90625 1.4751 6.07188 1.9126 7.3 3.0001C7.37813 3.06885 7.45625 3.14385 7.5375 3.21885C7.05312 3.74072 6.60625 4.29697 6.19688 4.87822C5.49063 4.94072 4.79063 5.0501 4.09688 5.20322C4.05625 5.04385 4.02187 4.88135 3.9875 4.71885C3.69375 3.20635 3.8875 2.06572 4.38125 1.78135V1.78135ZM3.61562 10.0188C3.48437 9.98135 3.35625 9.94072 3.22813 9.89697C2.5625 9.6876 1.80625 9.35635 1.25937 8.92197C0.94375 8.70322 0.73125 8.36572 0.671875 7.9876C0.671875 7.41572 1.65937 6.68447 3.08437 6.1876C3.2625 6.1251 3.44375 6.06885 3.625 6.01572C3.8375 6.69385 4.09375 7.35947 4.39062 8.00322C4.09062 8.65635 3.83125 9.33135 3.61562 10.0188V10.0188ZM7.25938 13.0813C6.74375 13.5532 6.14687 13.9282 5.49687 14.1845C5.15 14.3501 4.75 14.3657 4.39375 14.2251C3.89688 13.9376 3.69062 12.8345 3.97187 11.3501C4.00625 11.1751 4.04375 11.0001 4.0875 10.8282C4.7875 10.9782 5.49375 11.0813 6.20937 11.1345C6.62187 11.7188 7.075 12.2782 7.55937 12.8032C7.45937 12.9001 7.35938 12.9938 7.25938 13.0813ZM8.025 12.322C7.70625 11.9782 7.3875 11.597 7.07812 11.1876C7.37813 11.2001 7.6875 11.2063 8 11.2063C8.32188 11.2063 8.6375 11.2001 8.95 11.1845C8.6625 11.5813 8.35312 11.9595 8.025 12.322V12.322ZM12.1094 13.2595C12.0813 13.6407 11.8938 13.997 11.5938 14.2376C11.0969 14.5251 10.0375 14.1501 8.89375 13.1688C8.7625 13.0563 8.63125 12.9345 8.49687 12.8095C8.975 12.2813 9.41563 11.722 9.81563 11.1345C10.5313 11.0751 11.2437 10.9657 11.9469 10.8063C11.9781 10.9345 12.0062 11.0626 12.0312 11.1876C12.1844 11.8626 12.2094 12.5657 12.1094 13.2595V13.2595ZM12.6781 9.9001C12.5906 9.92822 12.5031 9.95635 12.4125 9.98135C12.1938 9.3001 11.925 8.63447 11.6156 7.9876C11.9156 7.3501 12.1688 6.69385 12.3813 6.02197C12.5438 6.06885 12.7 6.11885 12.85 6.16885C14.3063 6.66885 15.3281 7.4126 15.3281 7.98135C15.3281 8.59385 14.2375 9.38447 12.6781 9.9001ZM8 9.43135C8.79062 9.43135 9.43125 8.79072 9.43125 8.0001C9.43125 7.20947 8.79062 6.56885 8 6.56885C7.20938 6.56885 6.56875 7.20947 6.56875 8.0001C6.56875 8.79072 7.20938 9.43135 8 9.43135Z" fill="#5DC3EE"/>
</svg>
