<svg width="16" height="16" viewBox="0 0 16 16" fill="none" xmlns="http://www.w3.org/2000/svg">
<path fill-rule="evenodd" clip-rule="evenodd" d="M4 6.39995C4.53325 4.2667 5.86675 3.19995 8 3.19995C11.2 3.19995 11.6 5.59995 13.2 5.99995C14.2667 6.2667 15.2 5.8667 16 4.79995C15.4668 6.9332 14.1332 7.99995 12 7.99995C8.8 7.99995 8.4 5.59995 6.8 5.19995C5.73325 4.9332 4.8 5.3332 4 6.39995ZM0 11.2C0.53325 9.0667 1.86675 7.99995 4 7.99995C7.2 7.99995 7.6 10.4 9.2 10.8C10.2667 11.0667 11.2 10.6667 12 9.59995C11.4668 11.7332 10.1332 12.8 8 12.8C4.8 12.8 4.4 10.4 2.8 9.99995C1.73325 9.7332 0.8 10.1332 0 11.2Z" fill="url(#paint0_linear)"/>
<defs>
<linearGradient id="paint0_linear" x1="3.97593e-07" y1="-5.3333" x2="16" y2="21.3332" gradientUnits="userSpaceOnUse">
<stop stop-color="#2383AE"/>
<stop offset="1" stop-color="#6DD7B9"/>
</linearGradient>
</defs>
</svg>
