<svg width="64" height="42" viewBox="0 0 64 42" fill="none" xmlns="http://www.w3.org/2000/svg">
<path d="M62.8964 41.9655H1.1035C0.494124 41.9655 0 41.4713 0 40.862V1.13792C0 0.528547 0.494124 0.0344238 1.1035 0.0344238H62.8965C63.5059 0.0344238 64 0.528547 64 1.13792V40.862C63.9999 41.4715 63.5058 41.9655 62.8964 41.9655Z" fill="#F5F5F5"/>
<path d="M63.9999 3.26004H0V1.13792C0 0.528547 0.494124 0.0344238 1.1035 0.0344238H62.8965C63.5059 0.0344238 64 0.528547 64 1.13792L63.9999 3.26004Z" fill="#FF4B55"/>
<path d="M63.9999 12.9363H0V16.1618H63.9999V12.9363Z" fill="#FF4B55"/>
<path d="M63.9999 6.48499H0V9.71048H63.9999V6.48499Z" fill="#FF4B55"/>
<path d="M63.9999 22.6127H1.1035C0.494124 22.6127 0 22.1186 0 21.5092V19.3871H63.9999V22.6127Z" fill="#FF4B55"/>
<path d="M63.9999 32.29H0V35.5155H63.9999V32.29Z" fill="#FF4B55"/>
<path d="M62.8964 41.9655H1.1035C0.494124 41.9655 0 41.4714 0 40.862V38.74H63.9999V40.8621C63.9999 41.4715 63.5058 41.9655 62.8964 41.9655Z" fill="#FF4B55"/>
<path d="M63.9999 25.8387H0V29.0642H63.9999V25.8387Z" fill="#FF4B55"/>
<path d="M28.6896 0.034668H1.1035C0.494124 0.034668 0 0.528667 0 1.13804V21.5093C0 22.1186 0.494124 22.6128 1.1035 22.6128H28.6897C29.2991 22.6128 29.7932 22.1186 29.7932 21.5093V1.13804C29.7931 0.528667 29.2989 0.034668 28.6896 0.034668Z" fill="#41479B"/>
<path d="M3.09854 2.56736L3.34279 3.29985L4.11491 3.30573C4.21491 3.3066 4.25628 3.4341 4.17591 3.49348L3.55479 3.95223L3.78778 4.68835C3.81803 4.7836 3.70941 4.8626 3.62803 4.80435L2.99991 4.35548L2.37179 4.80448C2.29041 4.8626 2.18204 4.78373 2.21204 4.68848L2.44504 3.95235L1.82391 3.4936C1.74354 3.4341 1.78491 3.30673 1.88491 3.30585L2.65704 3.29998L2.90129 2.56748C2.93279 2.47248 3.06679 2.47248 3.09854 2.56736Z" fill="#F5F5F5"/>
<path d="M3.09854 6.39893L3.34279 7.13143L4.11491 7.1373C4.21491 7.13818 4.25628 7.26568 4.17591 7.32505L3.55479 7.7838L3.78778 8.51992C3.81803 8.61517 3.70941 8.69417 3.62803 8.63592L2.99991 8.18705L2.37179 8.63605C2.29041 8.69417 2.18204 8.6153 2.21204 8.52005L2.44504 7.78393L1.82391 7.32518C1.74354 7.26568 1.78491 7.1383 1.88491 7.13743L2.65704 7.13155L2.90129 6.39905C2.93279 6.30418 3.06679 6.30418 3.09854 6.39893Z" fill="#F5F5F5"/>
<path d="M3.09854 10.2307L3.34279 10.9632L4.11491 10.9691C4.21491 10.97 4.25628 11.0975 4.17591 11.1568L3.55479 11.6156L3.78778 12.3517C3.81803 12.447 3.70941 12.526 3.62803 12.4677L2.99991 12.0188L2.37179 12.4678C2.29041 12.526 2.18204 12.4471 2.21204 12.3518L2.44504 11.6157L1.82391 11.157C1.74354 11.0975 1.78491 10.9701 1.88491 10.9692L2.65704 10.9633L2.90129 10.2308C2.93279 10.136 3.06679 10.136 3.09854 10.2307Z" fill="#F5F5F5"/>
<path d="M3.09854 14.0626L3.34279 14.7951L4.11491 14.801C4.21491 14.8018 4.25628 14.9293 4.17591 14.9887L3.55479 15.4475L3.78778 16.1836C3.81803 16.2788 3.70941 16.3578 3.62803 16.2996L2.99991 15.8507L2.37179 16.2997C2.29041 16.3578 2.18204 16.279 2.21204 16.1837L2.44504 15.4476L1.82391 14.9888C1.74354 14.9293 1.78491 14.802 1.88491 14.8011L2.65704 14.7952L2.90129 14.0627C2.93279 13.9677 3.06679 13.9677 3.09854 14.0626Z" fill="#F5F5F5"/>
<path d="M3.09854 17.8944L3.34279 18.6269L4.11491 18.6327C4.21491 18.6336 4.25628 18.7611 4.17591 18.8205L3.55479 19.2792L3.78778 20.0154C3.81803 20.1106 3.70941 20.1896 3.62803 20.1314L2.99991 19.6825L2.37179 20.1315C2.29041 20.1896 2.18204 20.1107 2.21204 20.0155L2.44504 19.2794L1.82391 18.8206C1.74354 18.7611 1.78491 18.6337 1.88491 18.6329L2.65704 18.627L2.90129 17.8945C2.93279 17.7994 3.06679 17.7994 3.09854 17.8944Z" fill="#F5F5F5"/>
<path d="M6.07266 4.44582L6.31691 5.17832L7.08903 5.18419C7.18903 5.18507 7.2304 5.31257 7.15003 5.37194L6.52891 5.83069L6.76191 6.56681C6.79216 6.66206 6.68353 6.74106 6.60216 6.68281L5.97403 6.23381L5.34591 6.68281C5.26453 6.74094 5.15616 6.66206 5.18616 6.56681L5.41916 5.83069L4.79803 5.37194C4.71766 5.31244 4.75904 5.18507 4.85904 5.18419L5.63116 5.17832L5.87541 4.44582C5.90678 4.35107 6.04103 4.35107 6.07266 4.44582Z" fill="#F5F5F5"/>
<path d="M6.07266 8.2777L6.31691 9.0102L7.08903 9.01607C7.18903 9.01695 7.2304 9.14445 7.15003 9.20382L6.52891 9.66257L6.76191 10.3987C6.79216 10.4939 6.68353 10.5729 6.60216 10.5147L5.97403 10.0657L5.34591 10.5147C5.26453 10.5728 5.15616 10.4941 5.18616 10.3987L5.41916 9.66257L4.79803 9.20382C4.71766 9.14432 4.75904 9.01695 4.85904 9.01607L5.63116 9.0102L5.87541 8.2777C5.90678 8.18282 6.04103 8.18282 6.07266 8.2777Z" fill="#F5F5F5"/>
<path d="M6.07266 12.1095L6.31691 12.842L7.08903 12.8479C7.18903 12.8487 7.2304 12.9762 7.15003 13.0356L6.52891 13.4944L6.76191 14.2305C6.79216 14.3257 6.68353 14.4047 6.60216 14.3465L5.97403 13.8975L5.34591 14.3465C5.26453 14.4046 5.15616 14.3257 5.18616 14.2305L5.41916 13.4944L4.79803 13.0356C4.71766 12.9761 4.75904 12.8487 4.85904 12.8479L5.63116 12.842L5.87541 12.1095C5.90678 12.0146 6.04103 12.0146 6.07266 12.1095Z" fill="#F5F5F5"/>
<path d="M6.07266 15.9412L6.31691 16.6737L7.08903 16.6796C7.18903 16.6804 7.2304 16.8079 7.15003 16.8673L6.52891 17.3261L6.76191 18.0622C6.79216 18.1574 6.68353 18.2364 6.60216 18.1782L5.97403 17.7292L5.34591 18.1782C5.26453 18.2363 5.15616 18.1574 5.18616 18.0622L5.41916 17.3261L4.79803 16.8673C4.71766 16.8078 4.75904 16.6804 4.85904 16.6796L5.63116 16.6737L5.87541 15.9412C5.90678 15.8464 6.04103 15.8464 6.07266 15.9412Z" fill="#F5F5F5"/>
<path d="M9.04678 2.56725L9.29103 3.29975L10.0632 3.30562C10.1632 3.3065 10.2045 3.434 10.1242 3.49337L9.50303 3.95212L9.73603 4.68824C9.76628 4.78349 9.65765 4.86249 9.57628 4.80424L8.94815 4.35525L8.32003 4.80424C8.23866 4.86237 8.13028 4.78349 8.16028 4.68824L8.39328 3.95212L7.77216 3.49337C7.69178 3.43387 7.73316 3.3065 7.83316 3.30562L8.60528 3.29975L8.84953 2.56725C8.88103 2.47238 9.01515 2.47238 9.04678 2.56725Z" fill="#F5F5F5"/>
<path d="M9.04678 6.39894L9.29103 7.13144L10.0632 7.13732C10.1632 7.13819 10.2045 7.26569 10.1242 7.32507L9.50303 7.78381L9.73603 8.51994C9.76628 8.61519 9.65765 8.69419 9.57628 8.63594L8.94815 8.18694L8.32003 8.63594C8.23866 8.69406 8.13028 8.61519 8.16028 8.51994L8.39328 7.78381L7.77216 7.32507C7.69178 7.26557 7.73316 7.13819 7.83316 7.13732L8.60528 7.13144L8.84953 6.39894C8.88103 6.30419 9.01515 6.30419 9.04678 6.39894Z" fill="#F5F5F5"/>
<path d="M9.04678 10.2307L9.29103 10.9632L10.0632 10.9691C10.1632 10.97 10.2045 11.0975 10.1242 11.1569L9.50303 11.6156L9.73603 12.3517C9.76628 12.447 9.65765 12.526 9.57628 12.4677L8.94815 12.0187L8.32003 12.4677C8.23866 12.5259 8.13028 12.447 8.16028 12.3517L8.39328 11.6156L7.77216 11.1569C7.69178 11.0974 7.73316 10.97 7.83316 10.9691L8.60528 10.9632L8.84953 10.2307C8.88103 10.136 9.01515 10.136 9.04678 10.2307Z" fill="#F5F5F5"/>
<path d="M9.04678 14.0626L9.29103 14.7951L10.0632 14.801C10.1632 14.8019 10.2045 14.9294 10.1242 14.9887L9.50303 15.4475L9.73603 16.1836C9.76628 16.2789 9.65765 16.3579 9.57628 16.2996L8.94815 15.8506L8.32003 16.2996C8.23866 16.3577 8.13028 16.2789 8.16028 16.1836L8.39328 15.4475L7.77216 14.9887C7.69178 14.9292 7.73316 14.8019 7.83316 14.801L8.60528 14.7951L8.84953 14.0626C8.88103 13.9677 9.01515 13.9677 9.04678 14.0626Z" fill="#F5F5F5"/>
<path d="M9.04678 17.8944L9.29103 18.6269L10.0632 18.6327C10.1632 18.6336 10.2045 18.7611 10.1242 18.8205L9.50303 19.2792L9.73603 20.0154C9.76628 20.1106 9.65765 20.1896 9.57628 20.1314L8.94815 19.6824L8.32003 20.1314C8.23866 20.1895 8.13028 20.1106 8.16028 20.0154L8.39328 19.2792L7.77216 18.8205C7.69178 18.761 7.73316 18.6336 7.83316 18.6327L8.60528 18.6269L8.84953 17.8944C8.88103 17.7994 9.01515 17.7994 9.04678 17.8944Z" fill="#F5F5F5"/>
<path d="M12.0209 4.44582L12.2651 5.17832L13.0373 5.18419C13.1373 5.18507 13.1786 5.31257 13.0983 5.37194L12.4771 5.83069L12.7101 6.56681C12.7404 6.66206 12.6318 6.74106 12.5504 6.68281L11.9223 6.23381L11.2942 6.68281C11.2128 6.74094 11.1044 6.66206 11.1344 6.56681L11.3674 5.83069L10.7463 5.37194C10.6659 5.31244 10.7073 5.18507 10.8073 5.18419L11.5794 5.17832L11.8237 4.44582C11.855 4.35107 11.9893 4.35107 12.0209 4.44582Z" fill="#F5F5F5"/>
<path d="M12.0209 8.2777L12.2651 9.0102L13.0373 9.01607C13.1373 9.01695 13.1786 9.14445 13.0983 9.20382L12.4771 9.66257L12.7101 10.3987C12.7404 10.4939 12.6318 10.5729 12.5504 10.5147L11.9223 10.0657L11.2942 10.5147C11.2128 10.5728 11.1044 10.4941 11.1344 10.3987L11.3674 9.66257L10.7463 9.20382C10.6659 9.14432 10.7073 9.01695 10.8073 9.01607L11.5794 9.0102L11.8237 8.2777C11.855 8.18282 11.9893 8.18282 12.0209 8.2777Z" fill="#F5F5F5"/>
<path d="M12.0209 12.1095L12.2651 12.842L13.0373 12.8479C13.1373 12.8487 13.1786 12.9762 13.0983 13.0356L12.4771 13.4944L12.7101 14.2305C12.7404 14.3257 12.6318 14.4047 12.5504 14.3465L11.9223 13.8975L11.2942 14.3465C11.2128 14.4046 11.1044 14.3257 11.1344 14.2305L11.3674 13.4944L10.7463 13.0356C10.6659 12.9761 10.7073 12.8487 10.8073 12.8479L11.5794 12.842L11.8237 12.1095C11.855 12.0146 11.9893 12.0146 12.0209 12.1095Z" fill="#F5F5F5"/>
<path d="M12.0209 15.9412L12.2651 16.6737L13.0373 16.6796C13.1373 16.6804 13.1786 16.8079 13.0983 16.8673L12.4771 17.3261L12.7101 18.0622C12.7404 18.1574 12.6318 18.2364 12.5504 18.1782L11.9223 17.7292L11.2942 18.1782C11.2128 18.2363 11.1044 18.1574 11.1344 18.0622L11.3674 17.3261L10.7463 16.8673C10.6659 16.8078 10.7073 16.6804 10.8073 16.6796L11.5794 16.6737L11.8237 15.9412C11.855 15.8464 11.9893 15.8464 12.0209 15.9412Z" fill="#F5F5F5"/>
<path d="M14.995 2.56725L15.2393 3.29975L16.0114 3.30562C16.1114 3.3065 16.1528 3.434 16.0724 3.49337L15.4513 3.95212L15.6843 4.68824C15.7145 4.78349 15.6059 4.86249 15.5245 4.80424L14.8963 4.35525L14.2682 4.80424C14.1868 4.86237 14.0784 4.78349 14.1084 4.68824L14.3414 3.95212L13.7203 3.49337C13.6399 3.43387 13.6813 3.3065 13.7813 3.30562L14.5534 3.29975L14.7976 2.56725C14.8293 2.47238 14.9634 2.47238 14.995 2.56725Z" fill="#F5F5F5"/>
<path d="M14.995 6.39894L15.2393 7.13144L16.0114 7.13732C16.1114 7.13819 16.1528 7.26569 16.0724 7.32507L15.4513 7.78381L15.6843 8.51994C15.7145 8.61519 15.6059 8.69419 15.5245 8.63594L14.8963 8.18694L14.2682 8.63594C14.1868 8.69406 14.0784 8.61519 14.1084 8.51994L14.3414 7.78381L13.7203 7.32507C13.6399 7.26557 13.6813 7.13819 13.7813 7.13732L14.5534 7.13144L14.7976 6.39894C14.8293 6.30419 14.9634 6.30419 14.995 6.39894Z" fill="#F5F5F5"/>
<path d="M14.995 10.2307L15.2393 10.9632L16.0114 10.9691C16.1114 10.97 16.1528 11.0975 16.0724 11.1569L15.4513 11.6156L15.6843 12.3517C15.7145 12.447 15.6059 12.526 15.5245 12.4677L14.8963 12.0187L14.2682 12.4677C14.1868 12.5259 14.0784 12.447 14.1084 12.3517L14.3414 11.6156L13.7203 11.1569C13.6399 11.0974 13.6813 10.97 13.7813 10.9691L14.5534 10.9632L14.7976 10.2307C14.8293 10.136 14.9634 10.136 14.995 10.2307Z" fill="#F5F5F5"/>
<path d="M14.995 14.0626L15.2393 14.7951L16.0114 14.801C16.1114 14.8019 16.1528 14.9294 16.0724 14.9887L15.4513 15.4475L15.6843 16.1836C15.7145 16.2789 15.6059 16.3579 15.5245 16.2996L14.8963 15.8506L14.2682 16.2996C14.1868 16.3577 14.0784 16.2789 14.1084 16.1836L14.3414 15.4475L13.7203 14.9887C13.6399 14.9292 13.6813 14.8019 13.7813 14.801L14.5534 14.7951L14.7976 14.0626C14.8293 13.9677 14.9634 13.9677 14.995 14.0626Z" fill="#F5F5F5"/>
<path d="M14.995 17.8944L15.2393 18.6269L16.0114 18.6327C16.1114 18.6336 16.1528 18.7611 16.0724 18.8205L15.4513 19.2792L15.6843 20.0154C15.7145 20.1106 15.6059 20.1896 15.5245 20.1314L14.8963 19.6824L14.2682 20.1314C14.1868 20.1895 14.0784 20.1106 14.1084 20.0154L14.3414 19.2792L13.7203 18.8205C13.6399 18.761 13.6813 18.6336 13.7813 18.6327L14.5534 18.6269L14.7976 17.8944C14.8293 17.7994 14.9634 17.7994 14.995 17.8944Z" fill="#F5F5F5"/>
<path d="M17.9693 4.44582L18.2135 5.17832L18.9856 5.18419C19.0856 5.18507 19.127 5.31257 19.0466 5.37194L18.4255 5.83069L18.6585 6.56681C18.6888 6.66206 18.5801 6.74106 18.4988 6.68281L17.8706 6.23381L17.2425 6.68281C17.1611 6.74094 17.0528 6.66206 17.0828 6.56681L17.3158 5.83069L16.6946 5.37194C16.6143 5.31244 16.6556 5.18507 16.7556 5.18419L17.5278 5.17832L17.772 4.44582C17.8036 4.35107 17.9376 4.35107 17.9693 4.44582Z" fill="#F5F5F5"/>
<path d="M17.9693 8.2777L18.2135 9.0102L18.9856 9.01607C19.0856 9.01695 19.127 9.14445 19.0466 9.20382L18.4255 9.66257L18.6585 10.3987C18.6888 10.4939 18.5801 10.5729 18.4988 10.5147L17.8706 10.0657L17.2425 10.5147C17.1611 10.5728 17.0528 10.4941 17.0828 10.3987L17.3158 9.66257L16.6946 9.20382C16.6143 9.14432 16.6556 9.01695 16.7556 9.01607L17.5278 9.0102L17.772 8.2777C17.8036 8.18282 17.9376 8.18282 17.9693 8.2777Z" fill="#F5F5F5"/>
<path d="M17.9693 12.1095L18.2135 12.842L18.9856 12.8479C19.0856 12.8487 19.127 12.9762 19.0466 13.0356L18.4255 13.4944L18.6585 14.2305C18.6888 14.3257 18.5801 14.4047 18.4988 14.3465L17.8706 13.8975L17.2425 14.3465C17.1611 14.4046 17.0528 14.3257 17.0828 14.2305L17.3158 13.4944L16.6946 13.0356C16.6143 12.9761 16.6556 12.8487 16.7556 12.8479L17.5278 12.842L17.772 12.1095C17.8036 12.0146 17.9376 12.0146 17.9693 12.1095Z" fill="#F5F5F5"/>
<path d="M17.9693 15.9412L18.2135 16.6737L18.9856 16.6796C19.0856 16.6804 19.127 16.8079 19.0466 16.8673L18.4255 17.3261L18.6585 18.0622C18.6888 18.1574 18.5801 18.2364 18.4988 18.1782L17.8706 17.7292L17.2425 18.1782C17.1611 18.2363 17.0528 18.1574 17.0828 18.0622L17.3158 17.3261L16.6946 16.8673C16.6143 16.8078 16.6556 16.6804 16.7556 16.6796L17.5278 16.6737L17.772 15.9412C17.8036 15.8464 17.9376 15.8464 17.9693 15.9412Z" fill="#F5F5F5"/>
<path d="M20.9435 2.56725L21.1878 3.29975L21.9599 3.30562C22.0599 3.3065 22.1013 3.434 22.0209 3.49337L21.3998 3.95212L21.6328 4.68824C21.663 4.78349 21.5544 4.86249 21.473 4.80424L20.8449 4.35525L20.2168 4.80424C20.1354 4.86237 20.027 4.78349 20.057 4.68824L20.29 3.95212L19.6689 3.49337C19.5885 3.43387 19.6299 3.3065 19.7299 3.30562L20.502 3.29975L20.7463 2.56725C20.7776 2.47238 20.9119 2.47238 20.9435 2.56725Z" fill="#F5F5F5"/>
<path d="M20.9435 6.39894L21.1878 7.13144L21.9599 7.13732C22.0599 7.13819 22.1013 7.26569 22.0209 7.32507L21.3998 7.78381L21.6328 8.51994C21.663 8.61519 21.5544 8.69419 21.473 8.63594L20.8449 8.18694L20.2168 8.63594C20.1354 8.69406 20.027 8.61519 20.057 8.51994L20.29 7.78381L19.6689 7.32507C19.5885 7.26557 19.6299 7.13819 19.7299 7.13732L20.502 7.13144L20.7463 6.39894C20.7776 6.30419 20.9119 6.30419 20.9435 6.39894Z" fill="#F5F5F5"/>
<path d="M20.9435 10.2307L21.1878 10.9632L21.9599 10.9691C22.0599 10.97 22.1013 11.0975 22.0209 11.1569L21.3998 11.6156L21.6328 12.3517C21.663 12.447 21.5544 12.526 21.473 12.4677L20.8449 12.0187L20.2168 12.4677C20.1354 12.5259 20.027 12.447 20.057 12.3517L20.29 11.6156L19.6689 11.1569C19.5885 11.0974 19.6299 10.97 19.7299 10.9691L20.502 10.9632L20.7463 10.2307C20.7776 10.136 20.9119 10.136 20.9435 10.2307Z" fill="#F5F5F5"/>
<path d="M20.9435 14.0626L21.1878 14.7951L21.9599 14.801C22.0599 14.8019 22.1013 14.9294 22.0209 14.9887L21.3998 15.4475L21.6328 16.1836C21.663 16.2789 21.5544 16.3579 21.473 16.2996L20.8449 15.8506L20.2168 16.2996C20.1354 16.3577 20.027 16.2789 20.057 16.1836L20.29 15.4475L19.6689 14.9887C19.5885 14.9292 19.6299 14.8019 19.7299 14.801L20.502 14.7951L20.7463 14.0626C20.7776 13.9677 20.9119 13.9677 20.9435 14.0626Z" fill="#F5F5F5"/>
<path d="M20.9435 17.8944L21.1878 18.6269L21.9599 18.6327C22.0599 18.6336 22.1013 18.7611 22.0209 18.8205L21.3998 19.2792L21.6328 20.0154C21.663 20.1106 21.5544 20.1896 21.473 20.1314L20.8449 19.6824L20.2168 20.1314C20.1354 20.1895 20.027 20.1106 20.057 20.0154L20.29 19.2792L19.6689 18.8205C19.5885 18.761 19.6299 18.6336 19.7299 18.6327L20.502 18.6269L20.7463 17.8944C20.7776 17.7994 20.9119 17.7994 20.9435 17.8944Z" fill="#F5F5F5"/>
<path d="M23.9176 4.44582L24.1619 5.17832L24.934 5.18419C25.034 5.18507 25.0754 5.31257 24.995 5.37194L24.3739 5.83069L24.6069 6.56681C24.6371 6.66206 24.5285 6.74106 24.4471 6.68281L23.819 6.23381L23.1909 6.68281C23.1095 6.74094 23.0011 6.66206 23.0311 6.56681L23.2641 5.83069L22.643 5.37194C22.5626 5.31244 22.604 5.18507 22.704 5.18419L23.4761 5.17832L23.7204 4.44582C23.7519 4.35107 23.8861 4.35107 23.9176 4.44582Z" fill="#F5F5F5"/>
<path d="M23.9176 8.2777L24.1619 9.0102L24.934 9.01607C25.034 9.01695 25.0754 9.14445 24.995 9.20382L24.3739 9.66257L24.6069 10.3987C24.6371 10.4939 24.5285 10.5729 24.4471 10.5147L23.819 10.0657L23.1909 10.5147C23.1095 10.5728 23.0011 10.4941 23.0311 10.3987L23.2641 9.66257L22.643 9.20382C22.5626 9.14432 22.604 9.01695 22.704 9.01607L23.4761 9.0102L23.7204 8.2777C23.7519 8.18282 23.8861 8.18282 23.9176 8.2777Z" fill="#F5F5F5"/>
<path d="M23.9176 12.1095L24.1619 12.842L24.934 12.8479C25.034 12.8487 25.0754 12.9762 24.995 13.0356L24.3739 13.4944L24.6069 14.2305C24.6371 14.3257 24.5285 14.4047 24.4471 14.3465L23.819 13.8975L23.1909 14.3465C23.1095 14.4046 23.0011 14.3257 23.0311 14.2305L23.2641 13.4944L22.643 13.0356C22.5626 12.9761 22.604 12.8487 22.704 12.8479L23.4761 12.842L23.7204 12.1095C23.7519 12.0146 23.8861 12.0146 23.9176 12.1095Z" fill="#F5F5F5"/>
<path d="M23.9176 15.9412L24.1619 16.6737L24.934 16.6796C25.034 16.6804 25.0754 16.8079 24.995 16.8673L24.3739 17.3261L24.6069 18.0622C24.6371 18.1574 24.5285 18.2364 24.4471 18.1782L23.819 17.7292L23.1909 18.1782C23.1095 18.2363 23.0011 18.1574 23.0311 18.0622L23.2641 17.3261L22.643 16.8673C22.5626 16.8078 22.604 16.6804 22.704 16.6796L23.4761 16.6737L23.7204 15.9412C23.7519 15.8464 23.8861 15.8464 23.9176 15.9412Z" fill="#F5F5F5"/>
<path d="M26.8919 2.56725L27.1361 3.29975L27.9082 3.30562C28.0082 3.3065 28.0496 3.434 27.9692 3.49337L27.3481 3.95212L27.5811 4.68824C27.6114 4.78349 27.5027 4.86249 27.4214 4.80424L26.7932 4.35525L26.1651 4.80424C26.0837 4.86237 25.9754 4.78349 26.0054 4.68824L26.2384 3.95212L25.6172 3.49337C25.5369 3.43387 25.5782 3.3065 25.6782 3.30562L26.4504 3.29975L26.6946 2.56725C26.7261 2.47238 26.8601 2.47238 26.8919 2.56725Z" fill="#F5F5F5"/>
<path d="M26.8919 6.39894L27.1361 7.13144L27.9082 7.13732C28.0082 7.13819 28.0496 7.26569 27.9692 7.32507L27.3481 7.78381L27.5811 8.51994C27.6114 8.61519 27.5027 8.69419 27.4214 8.63594L26.7932 8.18694L26.1651 8.63594C26.0837 8.69406 25.9754 8.61519 26.0054 8.51994L26.2384 7.78381L25.6172 7.32507C25.5369 7.26557 25.5782 7.13819 25.6782 7.13732L26.4504 7.13144L26.6946 6.39894C26.7261 6.30419 26.8601 6.30419 26.8919 6.39894Z" fill="#F5F5F5"/>
<path d="M26.8919 10.2307L27.1361 10.9632L27.9082 10.9691C28.0082 10.97 28.0496 11.0975 27.9692 11.1569L27.3481 11.6156L27.5811 12.3517C27.6114 12.447 27.5027 12.526 27.4214 12.4677L26.7932 12.0187L26.1651 12.4677C26.0837 12.5259 25.9754 12.447 26.0054 12.3517L26.2384 11.6156L25.6172 11.1569C25.5369 11.0974 25.5782 10.97 25.6782 10.9691L26.4504 10.9632L26.6946 10.2307C26.7261 10.136 26.8601 10.136 26.8919 10.2307Z" fill="#F5F5F5"/>
<path d="M26.8919 14.0626L27.1361 14.7951L27.9082 14.801C28.0082 14.8019 28.0496 14.9294 27.9692 14.9887L27.3481 15.4475L27.5811 16.1836C27.6114 16.2789 27.5027 16.3579 27.4214 16.2996L26.7932 15.8506L26.1651 16.2996C26.0837 16.3577 25.9754 16.2789 26.0054 16.1836L26.2384 15.4475L25.6172 14.9887C25.5369 14.9292 25.5782 14.8019 25.6782 14.801L26.4504 14.7951L26.6946 14.0626C26.7261 13.9677 26.8601 13.9677 26.8919 14.0626Z" fill="#F5F5F5"/>
<path d="M26.8919 17.8944L27.1361 18.6269L27.9082 18.6327C28.0082 18.6336 28.0496 18.7611 27.9692 18.8205L27.3481 19.2792L27.5811 20.0154C27.6114 20.1106 27.5027 20.1896 27.4214 20.1314L26.7932 19.6824L26.1651 20.1314C26.0837 20.1895 25.9754 20.1106 26.0054 20.0154L26.2384 19.2792L25.6172 18.8205C25.5369 18.761 25.5782 18.6336 25.6782 18.6327L26.4504 18.6269L26.6946 17.8944C26.7261 17.7994 26.8601 17.7994 26.8919 17.8944Z" fill="#F5F5F5"/>
</svg>
